<?xml version="1.0" encoding="UTF-8"?>
<svg id="Layer_2" data-name="Layer 2" xmlns="http://www.w3.org/2000/svg" viewBox="0 0 4213.27 456.79">
  <defs>
    <style>
      .cls-1 {
        fill: #f0ecda;
      }
    </style>
  </defs>
  <g id="Layer_1-2" data-name="Layer 1">
    <g>
      <path class="cls-1" d="M1823.56,310.72c-6.91-3.13-19.8-3.61-30.53-2.98l-.62,129.82c-40.25,10.23-144.13,22.79-144-42.12l.68-339.87c.04-17.79,23.03-32.05,37.61-36.1,111.69-31,333.72-38.72,343.42,127.43,3.19,54.65-23.82,101.46-72.95,129l88.42,112.12c-5,34.99-40.52,57.69-74.78,58.31-35.99,4.63-66.93-9.05-85.83-38.81l-61.44-96.8ZM1852.85,199.78c23.18-3.16,34.5-24.61,34.72-42.56.22-18.53-12.67-36.83-33.95-41.18-19.83-4.06-41-2.73-61.06.4l.55,85.84c21.49.04,39.63.26,59.74-2.49Z"/>
      <path class="cls-1" d="M3591.06,311.96c-4.29-6.82-23.1-5.36-31.12-3.07l-.72,129.45c-43.37,9.34-142.51,21.6-142.53-43.2l-.1-337.48c0-17.64,19.92-33,34.85-37.53,72.75-22.08,184.87-25.32,254.99,2.04,52.66,20.55,86.85,64.78,91.37,116.3,5.01,57.22-19.15,109.51-73.16,138.16l89.27,112.86c-9.33,34.82-41.95,54.94-75.19,57.92-37.7,3.38-69.85-11.7-89.75-43.34l-57.91-92.09ZM3619.03,200c22.71-2.58,35.93-23.01,35.52-42.55-.38-18.19-12.79-36.49-33.95-41.03-19.71-4.22-40.26-3.25-61.17-1.34l.73,87.69c23.16-.47,40.14-.66,58.87-2.78Z"/>
      <path class="cls-1" d="M692.81,440.67c-30.77-9.24-34.96-51.24-45.14-83.47l-128.36-.71-25.4,81.78c-32.87,10.59-65.66,12.51-97.96,3.36-29.22-8.28-44.36-36.15-33.18-66.92L489.1,27.15c52.28-24.4,109.36-26.52,162.88-10.01,23.4,7.22,37.62,24.77,45.46,47.92l113.81,336.12c1.81,5.34,3.88,11.8,4.66,15.23,2.84,12.37-56.98,44.12-123.1,24.28ZM622.17,250.74l-37.49-116.7-39.7,116.15,77.19.54Z"/>
      <path class="cls-1" d="M1386.98,276.34l-.36,56.19,164.23-.23c5.08,0,16.64-2.62,22.5-3.28,20.12,26.67,25.03,60.48,11.03,91.29-5.37,11.82-19.68,22.45-33.78,22.39l-239.77-.89c-36.24-.14-64.12-32.11-64.05-67.05l.63-298.94c.08-36.09,32.82-63.61,67.29-63.71l258.27-.78c16.12,27.56,19.68,58.35,8.97,86.22-6.93,18.04-20.98,25.4-39.28,25.35l-155.55-.4-.2,46.36,160.85-.05c14.3,22.22,21.19,48.26,14.71,73.5-4.88,18.99-19.72,33.74-39.92,33.78l-135.58.26Z"/>
      <path class="cls-1" d="M4006.96,276.44l-.35,56.03,164.3-.14c5.29,0,16.13-2.52,22.34-3.47,20.56,25.86,26.33,59.43,12.4,90.58-5.43,12.14-20.55,23.29-35.07,23.27l-235.94-.41c-37.15-.06-68.67-29.98-68.63-67.81l.33-294.66c.04-38.69,32.18-67.14,68.91-67.24l258.61-.66c14.82,24.86,18.33,55.82,9.1,83.6-6.19,18.62-21.47,27.21-40.29,27.2l-155.76-.09.35,46.81,160.45-.4c14.47,21.72,20.37,48.05,14.62,73.14-4.85,21.18-22.54,34.05-43.7,34.08l-131.67.16Z"/>
      <path class="cls-1" d="M2435.12,372.55c-56.79,115.53-314.83,93.42-347.72,18.44-16.56-37.75,7.93-80.26,44.94-91.53,44.22,31.1,111.28,52.77,159.47,30.11,3.55-1.67,9.15-9.49,9.55-13.03,4.43-39.76-160.86-40.22-203.29-119.86-35.35-66.34-4.92-145.07,65.2-173.95,68.89-28.37,147.73-27.64,218.43-2.82,22.89,8.04,42.06,26.25,45.7,49.37,4.58,29.11-9.14,57.51-32.12,73.93-36.37-25.33-143.83-43.56-165.3-9.05-2.4,3.85,5.91,13.58,10.93,15.32l109.24,37.88c36.21,12.56,68.77,35.55,85.38,70.38,17,35.64,17.04,79.33-.4,114.81Z"/>
      <path class="cls-1" d="M1194.74,93.85c-33.54,71.78-75.6,133.89-121.63,197.42l-.68,145.99c-39.34,10.75-140.69,22.97-141.72-38.9l-1.77-106.51c-56.33-74.92-102.9-152.85-145.61-236.77,15.69-26.06,40.07-42.06,66.17-44.23,28.99-2.41,65.25,1.74,80.08,29.18l72.15,133.5,34.97-77.02,31.11-72.12c32.5-19.21,76.14-20.89,109.18-3.24,24.55,13.11,30.3,45.8,17.74,72.69Z"/>
      <path class="cls-1" d="M316.04,323.38c15.34,22.48,22.29,52.39,15.46,79.87-5.29,21.28-21.53,39.54-44.93,39.53l-212.53-.15c-40.28-.03-73.76-32.22-73.79-72.82L0,14.78C41.12,5.51,144.04-8.28,144.13,58.58l.37,267.5,146.27,1.06c5.71.04,14.92-1.92,25.27-3.75Z"/>
      <path class="cls-1" d="M2581.86,271.16l-1.24-141.27-96.73.13c-20.23-26.86-27.35-118.46,26.41-118.41l271.92.26,66.84-1.57c18.43,27.71,23.66,117.15-26.29,117.93l-69.51,1.09-.46,141.57-170.93.27Z"/>
      <path class="cls-1" d="M3361.12,431.4l-128.31-1.37c117.15-63.99,156.29-207.08,88.88-319.76-66.14-110.55-213.81-145.17-322.24-70.78-63.44,43.52-100.88,110.88-101.24,185.59-.35,73.7,33.38,143.13,95.8,186.65,35.93,25.04,79.21,43.47,124.32,43.57l243.09.56-.3-24.47ZM3119.29,386.98c-82.02-3.43-150-71.94-152.12-154.14-3.46-83.56,63.89-157.7,147.17-163.29l.2-.02c116.83-9.09,203.69,108.11,159.93,217.08-23.88,61.88-88.86,104.29-155.18,100.36Z"/>
      <path class="cls-1" d="M2688.65,370.76c-13.29,1.48-26.97,1.65-41.82.88l-63.99-84.66,168.2-.39-62.39,84.16Z"/>
      <path class="cls-1" d="M2793.77,434.45c5.65.01,6.17,21.31.84,21.37l-88.37.98c-17.04.19-32.48-9-40.47-20.28-9.12-12.88-10.75-32.77-5.81-45.39l16.01.48c5.77.17-6.84,42.61,26.71,42.67l91.08.18Z"/>
      <path class="cls-1" d="M2997.05,172.56c-31.55,73.7,5.29,158.24,79.27,186.66,74.71,28.7,161.7-10.68,184.8-91.23,50.75-170.01-197.24-253.19-264.07-95.43ZM3094.37,116.2h0s0,0,0,0ZM3116.76,344.93c3.04.13,6.11.22,9.22.25-3.11.05-6.19-.03-9.22-.25ZM3173.13,283.68l-.16.13c-26.72,22.51-70.07,22.64-96.2-.79-23.59-20.13-30.22-56.04-17.89-84.14,16.5-40.14,67.07-56.67,104.77-36.1,45.36,24.07,48.39,89.28,9.48,120.9Z"/>
    </g>
  </g>
</svg>